<?xml version="1.0" encoding="utf-8"?>
<!-- Generator: Adobe Illustrator 19.2.0, SVG Export Plug-In . SVG Version: 6.00 Build 0)  -->
<svg version="1.1" id="Layer_1" xmlns="http://www.w3.org/2000/svg" xmlns:xlink="http://www.w3.org/1999/xlink" x="0px" y="0px"
	 viewBox="0 0 1024 1024" style="enable-background:new 0 0 1024 1024;" xml:space="preserve">
<style type="text/css">
	.st0{fill:url(#SVGID_1_);}
	.st1{enable-background:new    ;}
	.st2{fill:#FFFFFF;stroke:#FFFFFF;stroke-width:14;stroke-linecap:round;stroke-linejoin:round;stroke-miterlimit:10;}
	.st3{fill:#FFFFFF;}
	.st4{fill:none;stroke:#FFFFFF;stroke-width:21;stroke-linecap:round;stroke-linejoin:round;stroke-miterlimit:10;}
	.st5{fill:none;stroke:#FFFFFF;stroke-width:11;stroke-linecap:round;stroke-linejoin:round;stroke-miterlimit:10;}
	.st6{fill:url(#SVGID_2_);}
	.st7{fill:url(#SVGID_3_);}
</style>
<g id="blue_bg">
	<linearGradient id="SVGID_1_" gradientUnits="userSpaceOnUse" x1="512" y1="1024" x2="512" y2="-2.298748e-08">
		<stop  offset="0" style="stop-color:#1A2E68"/>
		<stop  offset="1" style="stop-color:#0091E2"/>
	</linearGradient>
	<rect class="st0" width="1024" height="1024"/>
</g>
<g id="Shape_1_1_" class="st1">
</g>
<g id="Shape_2_1_" class="st1">
	<polyline id="triangle" class="st2" points="538.4,875.2 561.3,875.2 544.2,903.9 538.4,875.2 	"/>
	<g id="flash">
		<g>
			<path class="st3" d="M686.3,411.8L532,408.7c-2.9-0.1-5.2-2.4-5.2-5.3l-1.6-292.5c0-5.7-7.9-7.4-10.2-2.2L333,512.4
				c-1.6,3.5,1,7.5,4.9,7.5h203.8c3.3,0,13.4,3.2,12.9,6.5L512,750.1l16.7,15.8c2.3,2.1,5,2.2,8,0.7l21.7-9.6c2.3-2.2,6-2,7.9,0.5
				l19.1,12.9c2.5,1.9,5.6,2,8.3,0.1l26.3-18.1c0.5-0.6,1.1-1.4,1.3-2.2l70-332C692.1,414.9,689.6,411.8,686.3,411.8z"/>
		</g>
		<g>
			<path class="st4" d="M686.3,411.8L532,408.7c-2.9-0.1-5.2-2.4-5.2-5.3l-1.6-292.5c0-5.7-7.9-7.4-10.2-2.2L333,512.4
				c-1.6,3.5,1,7.5,4.9,7.5h203.8c3.3,0,13.4,3.2,12.9,6.5L512,750.1l16.7,15.8c2.3,2.1,5,2.2,8,0.7l21.7-9.6c2.3-2.2,6-2,7.9,0.5
				l19.1,12.9c2.5,1.9,5.6,2,8.3,0.1l26.3-18.1c0.5-0.6,1.1-1.4,1.3-2.2l70-332C692.1,414.9,689.6,411.8,686.3,411.8z"/>
		</g>
	</g>
	<g id="tip">
		<g id="Shape_2">
			<g>
				<polygon class="st5" points="506.9,751.2 541.5,918.5 624.2,755.6 				"/>
			</g>
		</g>
	</g>
	<linearGradient id="SVGID_2_" gradientUnits="userSpaceOnUse" x1="588.2684" y1="640" x2="652.0599" y2="640">
		<stop  offset="0" style="stop-color:#1A2E68"/>
		<stop  offset="1" style="stop-color:#0095E2"/>
	</linearGradient>
	<path class="st6" d="M642.1,531.1L642.1,531.1c-6.7-1.3-13.3,3-14.6,9.7l-39,193.5c-1.3,6.7,3,13.3,9.7,14.6l0,0
		c6.7,1.3,13.3-3,14.6-9.7l39-193.5C653.2,539.1,648.8,532.5,642.1,531.1z"/>
	<linearGradient id="SVGID_3_" gradientUnits="userSpaceOnUse" x1="635.4811" y1="506.3773" x2="658.5228" y2="493.0742">
		<stop  offset="0" style="stop-color:#007CE2"/>
		<stop  offset="1" style="stop-color:#007CE2"/>
	</linearGradient>
	<ellipse class="st7" cx="647" cy="499.7" rx="13.3" ry="13.3"/>
</g>
<g id="Layer_6">
</g>
</svg>
